# xmcd
#
# Track frame offsets:
#	150
#	12873
#	27534
#	39298
#	50494
#	63169
#	74986
#	88009
#	100728
#	112278
#	123740
#	135845
#	148374
#	160955
#	173867
#	190157
#	201787
#	212316
#	227119
#	239418
#
# Disc length: 3377 seconds
#
# Revision: 1
# Processed by: cddbd v1.5.1PL0 Copyright (c) Steve Scherf et al.
# Submitted via: EasyCDDAExtractor 7.0.6.1
#
DISCID=270d2f14
DTITLE=Claude Valade
DYEAR=1900
DGENRE=
TTITLE0=Aide-moi à passer la nuit
TTITLE1=C'est l'amour
TTITLE2=Seule à pleurer
TTITLE3=Il n'y avait que toi
TTITLE4=Au bout du monde
TTITLE5=Viens t'étendre au creux de mes bras
TTITLE6=Si tu l'aimes
TTITLE7=La belle vie
TTITLE8=Est-ce si facile de m'oublier
TTITLE9=Je me souviendrai toujours
TTITLE10=Tu n'as pas de coeur
TTITLE11=Dormir au soleil
TTITLE12=Je ne peux pas croire
TTITLE13=Reste avec lui
TTITLE14=Vin d'été
TTITLE15=Le chemin de tes rêves
TTITLE16=Laisse-moi partir
TTITLE17=C'est parce que je t'aime
TTITLE18=Je veux être près de toi
TTITLE19=Mon pays est ici
EXTD=
EXTT0=
EXTT1=
EXTT2=
EXTT3=
EXTT4=
EXTT5=
EXTT6=
EXTT7=
EXTT8=
EXTT9=
EXTT10=
EXTT11=
EXTT12=
EXTT13=
EXTT14=
EXTT15=
EXTT16=
EXTT17=
EXTT18=
EXTT19=
PLAYORDER=
